<svg width="28" height="28" viewBox="0 0 28 28" fill="none" xmlns="http://www.w3.org/2000/svg">
<mask id="mask0_156_479" style="mask-type:alpha" maskUnits="userSpaceOnUse" x="0" y="0" width="28" height="28">
<rect width="28" height="28" fill="#D9D9D9"/>
</mask>
<g mask="url(#mask0_156_479)">
<path d="M24.5 18.6666L15.4292 11.5791C14.9042 11.1708 14.316 11.0104 13.6646 11.0979C13.0132 11.1854 12.4931 11.5013 12.1042 12.0458L9.59583 15.4875C9.40139 15.7597 9.14375 15.9201 8.82292 15.9687C8.50208 16.0173 8.20556 15.9347 7.93333 15.7208L3.5 12.25V10.5C3.5 10.0138 3.71389 9.66384 4.14167 9.44995C4.56944 9.23607 4.97778 9.27496 5.36667 9.56662L8.16667 11.6666L12.5708 5.51246C12.9597 4.96801 13.4847 4.64718 14.1458 4.54996C14.8069 4.45273 15.4 4.61801 15.925 5.04579L19.8333 8.16662H22.1667C22.8083 8.16662 23.3576 8.39509 23.8146 8.85204C24.2715 9.30898 24.5 9.85829 24.5 10.5V18.6666ZM3.5 23.3333V15.1666L7.4375 18.3166C7.9625 18.7444 8.55069 18.9097 9.20208 18.8125C9.85347 18.7152 10.3736 18.3944 10.7625 17.85L13.3 14.3791C13.4944 14.1069 13.7521 13.9465 14.0729 13.8979C14.3937 13.8493 14.6903 13.9319 14.9625 14.1458L24.5 21.6125V23.3333H3.5Z" fill="#A6A6A6"/>
</g>
</svg>
