<svg width="28" height="28" viewBox="0 0 28 28" fill="none" xmlns="http://www.w3.org/2000/svg">
<mask id="mask0_112_653" style="mask-type:alpha" maskUnits="userSpaceOnUse" x="0" y="0" width="28" height="28">
<rect width="28" height="28" fill="#D9D9D9"/>
</mask>
<g mask="url(#mask0_112_653)">
<path d="M8.89575 7.46659L12.1624 3.23742C12.3958 2.92631 12.6728 2.69784 12.9937 2.552C13.3145 2.40617 13.6499 2.33325 13.9999 2.33325C14.3499 2.33325 14.6853 2.40617 15.0062 2.552C15.327 2.69784 15.6041 2.92631 15.8374 3.23742L19.1041 7.46659L24.0624 9.12909C24.568 9.28464 24.9666 9.57145 25.2583 9.9895C25.5499 10.4076 25.6958 10.8694 25.6958 11.3749C25.6958 11.6083 25.6617 11.8416 25.5937 12.0749C25.5256 12.3083 25.4138 12.5319 25.2583 12.7458L22.0499 17.2958L22.1666 22.0791C22.186 22.7596 21.9624 23.3333 21.4958 23.7999C21.0291 24.2666 20.4846 24.4999 19.8624 24.4999C19.8235 24.4999 19.6096 24.4708 19.2208 24.4124L13.9999 22.9541L8.77909 24.4124C8.68186 24.4513 8.57492 24.4756 8.45825 24.4853C8.34159 24.4951 8.23464 24.4999 8.13742 24.4999C7.5152 24.4999 6.97075 24.2666 6.50409 23.7999C6.03742 23.3333 5.81381 22.7596 5.83325 22.0791L5.94992 17.2666L2.77075 12.7458C2.6152 12.5319 2.50339 12.3083 2.43534 12.0749C2.36728 11.8416 2.33325 11.6083 2.33325 11.3749C2.33325 10.8888 2.47422 10.4367 2.75617 10.0187C3.03811 9.60061 3.43186 9.30409 3.93742 9.12909L8.89575 7.46659Z" fill="#A6A6A6"/>
</g>
</svg>
