<svg width="28" height="28" viewBox="0 0 28 28" fill="none" xmlns="http://www.w3.org/2000/svg">
<mask id="mask0_156_449" style="mask-type:alpha" maskUnits="userSpaceOnUse" x="0" y="0" width="28" height="28">
<rect width="28" height="28" fill="#D9D9D9"/>
</mask>
<g mask="url(#mask0_156_449)">
<path d="M6.91242 24.4999C6.4652 24.4999 6.03256 24.3444 5.6145 24.0333C5.19645 23.7221 4.91936 23.343 4.78325 22.8958C4.29714 21.2624 3.89853 19.8478 3.58742 18.652C3.27631 17.4562 3.02839 16.4062 2.84367 15.502C2.65895 14.5978 2.5277 13.7958 2.44992 13.0958C2.37214 12.3958 2.33325 11.7249 2.33325 11.0833C2.33325 9.29436 2.95547 7.7777 4.19992 6.53325C5.44436 5.28881 6.96103 4.66659 8.74992 4.66659H14.5833C15.1083 3.96659 15.7742 3.4027 16.5812 2.97492C17.3881 2.54714 18.2777 2.33325 19.2499 2.33325C19.736 2.33325 20.1492 2.50339 20.4895 2.84367C20.8298 3.18395 20.9999 3.59714 20.9999 4.08325C20.9999 4.19992 20.9853 4.31659 20.9562 4.43325C20.927 4.54992 20.893 4.65686 20.8541 4.75409C20.7763 4.96797 20.7034 5.18186 20.6353 5.39575C20.5673 5.60964 20.5138 5.84297 20.4749 6.09575L23.1291 8.74992H24.4999C24.8305 8.74992 25.1076 8.86172 25.3312 9.08533C25.5548 9.30895 25.6666 9.58603 25.6666 9.91658V16.0416C25.6666 16.2944 25.5937 16.518 25.4478 16.7124C25.302 16.9069 25.1027 17.0527 24.8499 17.1499L22.3708 17.9666L20.9124 22.8374C20.7569 23.343 20.4749 23.7464 20.0666 24.0478C19.6583 24.3492 19.1916 24.4999 18.6666 24.4999H16.3333C15.6916 24.4999 15.1423 24.2714 14.6853 23.8145C14.2284 23.3576 13.9999 22.8083 13.9999 22.1666H11.6666C11.6666 22.8083 11.4381 23.3576 10.9812 23.8145C10.5242 24.2714 9.97492 24.4999 9.33325 24.4999H6.91242ZM18.6666 12.8333C18.9971 12.8333 19.2742 12.7214 19.4978 12.4978C19.7214 12.2742 19.8333 11.9971 19.8333 11.6666C19.8333 11.336 19.7214 11.0589 19.4978 10.8353C19.2742 10.6117 18.9971 10.4999 18.6666 10.4999C18.336 10.4999 18.0589 10.6117 17.8353 10.8353C17.6117 11.0589 17.4999 11.336 17.4999 11.6666C17.4999 11.9971 17.6117 12.2742 17.8353 12.4978C18.0589 12.7214 18.336 12.8333 18.6666 12.8333ZM13.9999 10.4999C14.3305 10.4999 14.6076 10.3881 14.8312 10.1645C15.0548 9.94089 15.1666 9.66381 15.1666 9.33325C15.1666 9.0027 15.0548 8.72561 14.8312 8.502C14.6076 8.27839 14.3305 8.16658 13.9999 8.16658H10.4999C10.1694 8.16658 9.89228 8.27839 9.66867 8.502C9.44506 8.72561 9.33325 9.0027 9.33325 9.33325C9.33325 9.66381 9.44506 9.94089 9.66867 10.1645C9.89228 10.3881 10.1694 10.4999 10.4999 10.4999H13.9999Z" fill="#A6A6A6"/>
</g>
</svg>
